<?xml version="1.0" encoding="utf-8"?>
<!-- Generator: Adobe Illustrator 24.3.0, SVG Export Plug-In . SVG Version: 6.00 Build 0)  -->
<svg version="1.1" id="Layer_1" xmlns="http://www.w3.org/2000/svg" xmlns:xlink="http://www.w3.org/1999/xlink" x="0px" y="0px"
	 viewBox="0 0 1920 1080" style="enable-background:new 0 0 1920 1080;" xml:space="preserve">
<style type="text/css">
	.st0{fill:#C9DFF2;}
	.st1{fill:#091017;}
</style>
<rect x="0" class="st0" width="1920" height="1080"/>
<g>
	<g>
		<path class="st1" d="M1162.76,733.84h-39.86c-18.89,0-36.34-10.08-45.78-26.43l-59.33-102.76l-13.95-24.16
			c-1.26-2.18-3.59-3.52-6.1-3.52h-10.13c-2.52,0-4.84,1.34-6.1,3.52l-13.95,24.16l-45.92,79.54l-13.41,23.22
			c-9.44,16.35-26.89,26.43-45.78,26.43H750.44l74.59-129.19L841,576.97v0c4.16-7.22,14.58-7.22,18.75,0v0l13.95,24.16
			c1.26,2.18,3.59,3.52,6.1,3.52h11.53c2.52,0,4.84-1.34,6.1-3.52l13.95-24.16l45.21-78.32l25.82-44.71
			c4.17-7.21,14.58-7.22,18.74,0l26.71,46.27l44.33,76.77l15.98,27.68L1162.76,733.84z"/>
		<path class="st1" d="M1166.34,418.94L1166.34,418.94c-28.98,9.34-52.4,32.9-61.62,61.68c-1.24,3.86-6.63,3.85-7.89-0.01
			c-3.5-10.76-8.93-20.78-15.83-29.62c-3.45-4.29-7.19-8.37-11.27-12.03c-9.94-9.02-21.71-15.98-34.6-20.09
			c-3.84-1.23-3.92-6.63-0.09-7.87c29.24-9.49,52.3-32.74,61.78-62c1.23-3.79,6.63-3.77,7.85,0.03
			c9.28,29.01,32.99,52.72,62.05,61.95C1170.71,412.24,1170.42,418,1166.34,418.94z"/>
	</g>
</g>
</svg>
