<?xml version="1.0" encoding="utf-8"?>
<!-- Generator: Adobe Illustrator 24.3.0, SVG Export Plug-In . SVG Version: 6.00 Build 0)  -->
<svg version="1.1" id="Layer_1" xmlns="http://www.w3.org/2000/svg" xmlns:xlink="http://www.w3.org/1999/xlink" x="0px" y="0px"
	 viewBox="0 0 1920 1080" style="enable-background:new 0 0 1920 1080;" xml:space="preserve">
<style type="text/css">
	.st0{fill:#FFFFFF;}
	.st1{fill:#1335F2;}
</style>
<rect x="0" class="st0" width="1920" height="1080"/>
<g>
	<g>
		<path class="st1" d="M681.23,603.02l38.71-97.13h17.78l38.85,97.13h-17.24l-9.17-24.08h-43.23l-9.17,24.08H681.23z M712.42,564.71
			h32.29l-16.14-42L712.42,564.71z"/>
		<path class="st1" d="M787.66,603.02V501.24h15.73v101.78H787.66z"/>
		<path class="st1" d="M853.6,605.07c-5.2,0-10.01-0.94-14.43-2.8c-4.43-1.87-8.28-4.51-11.56-7.93c-3.28-3.42-5.84-7.43-7.66-12.04
			c-1.83-4.6-2.73-9.64-2.73-15.12c0-5.38,0.91-10.37,2.73-14.98c1.82-4.6,4.4-8.62,7.73-12.04c3.33-3.42,7.25-6.06,11.76-7.93
			c4.51-1.87,9.42-2.8,14.71-2.8c5.2,0,10.01,0.94,14.43,2.8c4.42,1.87,8.28,4.51,11.56,7.93c3.28,3.42,5.83,7.41,7.66,11.97
			c1.82,4.56,2.74,9.58,2.74,15.05c0,5.47-0.91,10.51-2.74,15.12c-1.83,4.61-4.4,8.62-7.73,12.04c-3.33,3.42-7.25,6.07-11.77,7.93
			S858.89,605.07,853.6,605.07z M853.87,590.84c3.92,0,7.43-1.03,10.53-3.08c3.1-2.05,5.54-4.86,7.32-8.41
			c1.78-3.56,2.67-7.61,2.67-12.17c0-4.56-0.89-8.6-2.67-12.11c-1.78-3.51-4.22-6.29-7.32-8.35c-3.1-2.05-6.61-3.08-10.53-3.08
			c-3.92,0-7.43,1.03-10.53,3.08c-3.1,2.05-5.54,4.84-7.32,8.35c-1.78,3.51-2.67,7.55-2.67,12.11c0,4.56,0.89,8.62,2.67,12.17
			c1.78,3.56,4.22,6.36,7.32,8.41C846.44,589.82,849.95,590.84,853.87,590.84z"/>
		<path class="st1" d="M904.35,603.02v-71.55h14.36l0.55,9.85c2.1-3.65,5.04-6.54,8.82-8.69c3.78-2.14,8.14-3.21,13.06-3.21
			c5.38,0,10.05,1.28,14.02,3.83c3.97,2.55,7.05,6.16,9.23,10.81c2.19,4.65,3.28,10.12,3.28,16.42v42.55h-15.73v-40.77
			c0-5.84-1.3-10.4-3.9-13.68c-2.6-3.28-6.23-4.93-10.88-4.93c-3.28,0-6.23,0.78-8.82,2.33c-2.6,1.55-4.63,3.65-6.09,6.29
			c-1.46,2.65-2.19,5.7-2.19,9.17v41.59H904.35z"/>
		<path class="st1" d="M1014.48,601.65c-4.65,0-8.98-0.91-13-2.74c-4.01-1.82-7.52-4.35-10.53-7.59c-3.01-3.24-5.33-7.02-6.98-11.35
			c-1.64-4.33-2.46-9.05-2.46-14.16c0-5.11,0.84-9.87,2.53-14.3c1.69-4.42,4.08-8.28,7.18-11.56c3.1-3.28,6.7-5.86,10.81-7.73
			c4.1-1.87,8.53-2.8,13.27-2.8c4.92,0,9.42,1.07,13.47,3.21c4.06,2.14,7.32,5.13,9.78,8.96l0.55-10.12h14.36v64.02
			c0,5.47-0.87,10.46-2.6,14.98c-1.73,4.51-4.2,8.39-7.39,11.63c-3.19,3.24-7,5.72-11.42,7.46c-4.43,1.73-9.37,2.6-14.84,2.6
			c-7.3,0-13.68-1.64-19.15-4.92c-5.47-3.28-9.76-7.84-12.86-13.68l14.91-5.2c2.01,3.28,4.51,5.77,7.52,7.46
			c3.01,1.69,6.38,2.53,10.12,2.53c4.01,0,7.52-0.89,10.53-2.67c3.01-1.78,5.34-4.29,6.98-7.52c1.64-3.24,2.46-7.05,2.46-11.42
			v-6.84c-2.55,3.65-5.84,6.52-9.85,8.62C1023.87,600.6,1019.4,601.65,1014.48,601.65z M1017.76,587.42c3.83,0,7.27-0.96,10.33-2.87
			c3.05-1.91,5.47-4.51,7.25-7.8c1.78-3.28,2.67-7.02,2.67-11.22c0-4.19-0.89-7.93-2.67-11.22c-1.78-3.28-4.2-5.88-7.25-7.8
			c-3.06-1.92-6.5-2.87-10.33-2.87c-3.83,0-7.25,0.96-10.26,2.87c-3.01,1.91-5.4,4.51-7.18,7.8c-1.78,3.28-2.67,7.02-2.67,11.22
			c0,4.2,0.89,7.93,2.67,11.22c1.78,3.28,4.17,5.88,7.18,7.8C1010.51,586.47,1013.93,587.42,1017.76,587.42z"/>
		<path class="st1" d="M1094.91,605.07c-4.65,0-8.96-0.78-12.93-2.33s-7.34-3.76-10.12-6.64c-2.78-2.87-4.77-6.27-5.95-10.19
			l14.23-3.69c1.18,3.1,3.1,5.52,5.74,7.25c2.64,1.73,5.7,2.6,9.17,2.6c3.56,0,6.47-0.84,8.76-2.53c2.28-1.69,3.42-3.85,3.42-6.5
			c0-2.28-0.91-4.19-2.74-5.75c-1.83-1.55-4.79-2.69-8.89-3.42l-4.51-0.82c-7.66-1.37-13.43-3.83-17.31-7.39
			c-3.88-3.56-5.81-8.12-5.81-13.68c0-4.47,1.14-8.39,3.42-11.76c2.28-3.37,5.43-6.02,9.44-7.93c4.01-1.91,8.62-2.87,13.82-2.87
			c4.47,0,8.57,0.78,12.31,2.32c3.74,1.55,6.89,3.74,9.44,6.57c2.55,2.83,4.38,6.16,5.47,9.99l-14.09,3.42
			c-1.09-2.92-2.81-5.22-5.13-6.91c-2.33-1.69-5.04-2.53-8.14-2.53c-3.19,0-5.84,0.8-7.93,2.39c-2.1,1.6-3.15,3.63-3.15,6.09
			c0,2.1,0.93,3.83,2.8,5.2c1.87,1.37,5.04,2.46,9.51,3.28l4.51,0.82c7.29,1.28,12.9,3.79,16.83,7.52
			c3.92,3.74,5.88,8.39,5.88,13.95c0,3.38-0.68,6.5-2.05,9.37c-1.37,2.87-3.31,5.38-5.82,7.52c-2.51,2.14-5.47,3.79-8.89,4.93
			C1102.78,604.5,1099.02,605.07,1094.91,605.07z"/>
		<path class="st1" d="M1153.33,511.5c0,1.73-0.43,3.33-1.3,4.79c-0.87,1.46-2.03,2.62-3.49,3.49c-1.46,0.87-3.06,1.3-4.79,1.3
			c-1.73,0-3.33-0.43-4.79-1.3c-1.46-0.87-2.62-2.03-3.49-3.49c-0.87-1.46-1.3-3.06-1.3-4.79c0-1.73,0.43-3.33,1.3-4.79
			c0.86-1.46,2.03-2.62,3.49-3.49c1.46-0.87,3.05-1.3,4.79-1.3c1.73,0,3.33,0.43,4.79,1.3c1.46,0.87,2.62,2.03,3.49,3.49
			C1152.89,508.17,1153.33,509.77,1153.33,511.5z M1135.95,603.02v-71.55h15.73v71.55H1135.95z"/>
		<path class="st1" d="M1198.88,605.07c-4.74,0-9.14-0.96-13.2-2.87c-4.06-1.91-7.59-4.56-10.6-7.93c-3.01-3.37-5.36-7.34-7.05-11.9
			c-1.69-4.56-2.53-9.48-2.53-14.77c0-5.38,0.87-10.4,2.6-15.05c1.73-4.65,4.15-8.71,7.25-12.18c3.1-3.47,6.72-6.16,10.88-8.07
			c4.15-1.91,8.64-2.87,13.47-2.87c4.74,0,9.07,1,13,3.01c3.92,2.01,7.16,4.83,9.71,8.48v-39.67h15.73v101.78h-14.37l-0.68-11.49
			c-2.55,4.2-5.93,7.5-10.12,9.92C1208.77,603.86,1204.08,605.07,1198.88,605.07z M1202.16,590.84c3.92,0,7.43-1.03,10.53-3.08
			c3.1-2.05,5.54-4.86,7.32-8.41c1.78-3.56,2.67-7.57,2.67-12.04c0-4.56-0.89-8.62-2.67-12.18c-1.78-3.56-4.22-6.36-7.32-8.41
			c-3.1-2.05-6.61-3.08-10.53-3.08c-3.92,0-7.43,1.03-10.53,3.08c-3.1,2.05-5.54,4.86-7.32,8.41c-1.78,3.56-2.67,7.62-2.67,12.18
			c0,4.47,0.89,8.48,2.67,12.04c1.78,3.56,4.22,6.36,7.32,8.41C1194.73,589.82,1198.24,590.84,1202.16,590.84z"/>
		<path class="st1" d="M1288.35,605.07c-5.29,0-10.15-0.94-14.57-2.8c-4.43-1.87-8.28-4.49-11.56-7.87
			c-3.28-3.37-5.82-7.36-7.59-11.97c-1.78-4.6-2.67-9.69-2.67-15.25c0-5.38,0.89-10.35,2.67-14.91c1.78-4.56,4.24-8.55,7.39-11.97
			c3.15-3.42,6.86-6.09,11.15-8c4.29-1.91,8.94-2.87,13.95-2.87c5.02,0,9.6,0.89,13.75,2.67c4.15,1.78,7.75,4.31,10.81,7.59
			c3.06,3.28,5.41,7.18,7.05,11.7c1.64,4.51,2.46,9.51,2.46,14.98v4.65h-52.94c0.45,4.2,1.57,7.82,3.35,10.88
			c1.78,3.06,4.08,5.4,6.91,7.05c2.83,1.64,6.11,2.46,9.85,2.46c7.48,0,13.31-3.33,17.51-9.99l13.82,5.34
			c-1.64,3.74-4.04,7-7.18,9.78c-3.15,2.78-6.79,4.9-10.94,6.36C1297.4,604.34,1293,605.07,1288.35,605.07z M1287.11,542.14
			c-3.19,0-6.04,0.73-8.55,2.19c-2.51,1.46-4.63,3.51-6.36,6.16c-1.73,2.65-2.92,5.75-3.56,9.3h36.12c-0.55-3.56-1.6-6.66-3.15-9.3
			c-1.55-2.64-3.58-4.7-6.09-6.16C1293.02,542.87,1290.22,542.14,1287.11,542.14z"/>
		<path class="st1" d="M1357.84,603.02l38.71-97.13h17.78l38.85,97.13h-17.24l-9.17-24.08h-43.23l-9.17,24.08H1357.84z
			 M1389.03,564.71h32.29l-16.14-42L1389.03,564.71z"/>
		<path class="st1" d="M1465.36,603.02v-97.13h16.69v97.13H1465.36z"/>
	</g>
	<g>
		<path class="st1" d="M636.72,633.45H617.5c-9.1,0-17.52-4.86-22.07-12.74l-28.6-49.54l-6.72-11.65c-0.61-1.05-1.73-1.7-2.94-1.7
			h-4.89c-1.21,0-2.34,0.65-2.94,1.7l-6.72,11.65l-22.14,38.34l-6.46,11.2c-4.55,7.88-12.96,12.74-22.07,12.74h-54l35.96-62.28
			l7.7-13.34l0,0c2.01-3.48,7.03-3.48,9.04,0l0,0l6.72,11.65c0.61,1.05,1.73,1.7,2.94,1.7h5.56c1.21,0,2.34-0.65,2.94-1.7
			l6.72-11.65l21.8-37.76l12.44-21.56c2.01-3.48,7.03-3.48,9.04,0l12.88,22.3l21.37,37.01l7.7,13.34L636.72,633.45z"/>
		<path class="st1" d="M638.44,481.64L638.44,481.64c-13.97,4.5-25.26,15.86-29.71,29.73c-0.6,1.86-3.2,1.86-3.8,0
			c-1.69-5.19-4.31-10.02-7.63-14.28c-1.66-2.07-3.47-4.04-5.43-5.8c-4.79-4.35-10.47-7.7-16.68-9.69c-1.85-0.59-1.89-3.2-0.04-3.8
			c14.1-4.58,25.21-15.78,29.78-29.89c0.59-1.83,3.2-1.82,3.78,0.01c4.47,13.99,15.91,25.42,29.91,29.87
			C640.55,478.41,640.41,481.19,638.44,481.64z"/>
	</g>
</g>
</svg>
