<?xml version="1.0" encoding="utf-8"?>
<!-- Generator: Adobe Illustrator 24.3.0, SVG Export Plug-In . SVG Version: 6.00 Build 0)  -->
<svg version="1.1" id="Layer_1" xmlns="http://www.w3.org/2000/svg" xmlns:xlink="http://www.w3.org/1999/xlink" x="0px" y="0px"
	 viewBox="0 0 1920 1080" style="enable-background:new 0 0 1920 1080;" xml:space="preserve">
<style type="text/css">
	.st0{fill:#091017;}
	.st1{fill:#FFFFFF;}
</style>
<rect class="st0" width="1920" height="1080"/>
<g>
	<g>
		<path class="st1" d="M532.26,578.8l41.36-103.76h19l41.5,103.76h-18.41l-9.79-25.72h-46.18l-9.79,25.72H532.26z M565.58,537.88
			h34.49l-17.24-44.86L565.58,537.88z"/>
		<path class="st1" d="M645.95,578.8V470.07h16.81V578.8H645.95z"/>
		<path class="st1" d="M716.39,580.99c-5.55,0-10.69-1-15.42-3c-4.73-2-8.84-4.82-12.35-8.48c-3.51-3.65-6.24-7.94-8.18-12.86
			c-1.95-4.92-2.92-10.3-2.92-16.15c0-5.75,0.97-11.08,2.92-16c1.95-4.92,4.7-9.21,8.26-12.86c3.55-3.65,7.74-6.48,12.57-8.48
			c4.82-2,10.06-3,15.71-3c5.55,0,10.69,1,15.42,3c4.72,2,8.84,4.82,12.35,8.48c3.51,3.65,6.23,7.92,8.18,12.79
			c1.95,4.87,2.92,10.23,2.92,16.08c0,5.85-0.98,11.23-2.92,16.15c-1.95,4.92-4.7,9.21-8.26,12.86c-3.56,3.65-7.75,6.48-12.57,8.48
			C727.28,579.99,722.04,580.99,716.39,580.99z M716.68,565.79c4.19,0,7.94-1.1,11.25-3.29c3.31-2.19,5.92-5.19,7.82-8.99
			c1.9-3.8,2.85-8.13,2.85-13.01c0-4.87-0.95-9.18-2.85-12.93c-1.9-3.75-4.51-6.72-7.82-8.91c-3.31-2.19-7.06-3.29-11.25-3.29
			c-4.19,0-7.94,1.1-11.25,3.29c-3.31,2.19-5.92,5.17-7.82,8.91c-1.9,3.75-2.85,8.06-2.85,12.93c0,4.87,0.95,9.21,2.85,13.01
			c1.9,3.8,4.51,6.8,7.82,8.99C708.74,564.7,712.49,565.79,716.68,565.79z"/>
		<path class="st1" d="M770.61,578.8v-76.43h15.34l0.58,10.52c2.24-3.89,5.38-6.99,9.43-9.28c4.04-2.29,8.7-3.43,13.96-3.43
			c5.75,0,10.74,1.36,14.98,4.09c4.24,2.73,7.53,6.58,9.86,11.54c2.34,4.97,3.51,10.81,3.51,17.54v45.45h-16.81v-43.55
			c0-6.23-1.39-11.11-4.16-14.61c-2.78-3.51-6.65-5.26-11.62-5.26c-3.51,0-6.65,0.83-9.43,2.48c-2.78,1.66-4.95,3.9-6.5,6.72
			c-1.56,2.83-2.34,6.09-2.34,9.79v44.43H770.61z"/>
		<path class="st1" d="M888.25,577.34c-4.97,0-9.6-0.97-13.88-2.92c-4.29-1.95-8.04-4.65-11.25-8.11c-3.22-3.46-5.7-7.5-7.45-12.13
			c-1.75-4.63-2.63-9.67-2.63-15.13c0-5.45,0.9-10.54,2.7-15.27c1.8-4.72,4.36-8.84,7.67-12.35c3.31-3.51,7.16-6.26,11.54-8.26
			c4.38-2,9.11-3,14.18-3c5.26,0,10.06,1.15,14.39,3.43c4.33,2.29,7.82,5.48,10.45,9.57l0.58-10.81h15.34v68.39
			c0,5.85-0.93,11.18-2.78,16c-1.85,4.82-4.48,8.96-7.89,12.42c-3.41,3.46-7.48,6.11-12.2,7.96c-4.73,1.85-10.01,2.78-15.86,2.78
			c-7.8,0-14.61-1.75-20.46-5.26s-10.43-8.38-13.74-14.61l15.93-5.55c2.14,3.51,4.82,6.16,8.04,7.96c3.22,1.8,6.82,2.7,10.81,2.7
			c4.29,0,8.04-0.95,11.25-2.85c3.22-1.9,5.7-4.58,7.45-8.04c1.75-3.46,2.63-7.53,2.63-12.2v-7.31c-2.73,3.9-6.24,6.97-10.52,9.21
			C898.28,576.22,893.51,577.34,888.25,577.34z M891.76,562.14c4.09,0,7.77-1.02,11.03-3.07c3.26-2.05,5.85-4.82,7.74-8.33
			c1.9-3.51,2.85-7.5,2.85-11.98c0-4.48-0.95-8.48-2.85-11.98c-1.9-3.51-4.48-6.28-7.74-8.33c-3.27-2.05-6.94-3.07-11.03-3.07
			c-4.09,0-7.75,1.02-10.96,3.07c-3.21,2.05-5.77,4.82-7.67,8.33c-1.9,3.51-2.85,7.5-2.85,11.98c0,4.48,0.95,8.48,2.85,11.98
			c1.9,3.51,4.46,6.28,7.67,8.33C884.01,561.12,887.66,562.14,891.76,562.14z"/>
		<path class="st1" d="M974.18,580.99c-4.97,0-9.57-0.83-13.81-2.48c-4.24-1.66-7.84-4.02-10.81-7.09
			c-2.97-3.07-5.09-6.7-6.36-10.89l15.2-3.95c1.26,3.31,3.31,5.9,6.14,7.75c2.82,1.85,6.09,2.78,9.79,2.78c3.8,0,6.92-0.9,9.35-2.7
			c2.43-1.8,3.65-4.11,3.65-6.94c0-2.43-0.98-4.48-2.92-6.14c-1.95-1.66-5.11-2.87-9.5-3.65l-4.82-0.88
			c-8.18-1.46-14.35-4.09-18.49-7.89c-4.14-3.8-6.21-8.67-6.21-14.61c0-4.77,1.22-8.96,3.65-12.57c2.43-3.6,5.8-6.43,10.08-8.48
			c4.29-2.05,9.21-3.07,14.76-3.07c4.77,0,9.16,0.83,13.15,2.48c3.99,1.66,7.36,4,10.08,7.01c2.73,3.02,4.68,6.58,5.85,10.67
			L987.91,524c-1.17-3.12-3-5.58-5.48-7.38c-2.49-1.8-5.39-2.7-8.7-2.7c-3.41,0-6.24,0.85-8.48,2.56c-2.24,1.71-3.36,3.87-3.36,6.5
			c0,2.24,1,4.09,2.99,5.55c2,1.46,5.38,2.63,10.16,3.51l4.82,0.88c7.79,1.37,13.78,4.04,17.97,8.04c4.19,4,6.28,8.96,6.28,14.91
			c0,3.61-0.73,6.94-2.19,10.01c-1.46,3.07-3.53,5.75-6.21,8.04c-2.68,2.29-5.85,4.04-9.5,5.26
			C982.58,580.38,978.56,580.99,974.18,580.99z"/>
		<path class="st1" d="M1036.58,481.03c0,1.85-0.46,3.56-1.39,5.11c-0.93,1.56-2.17,2.8-3.73,3.73c-1.56,0.93-3.26,1.39-5.12,1.39
			s-3.56-0.46-5.11-1.39c-1.56-0.92-2.8-2.17-3.73-3.73c-0.93-1.56-1.39-3.26-1.39-5.11c0-1.85,0.46-3.55,1.39-5.11
			c0.92-1.56,2.17-2.8,3.73-3.73c1.56-0.92,3.26-1.39,5.11-1.39s3.56,0.46,5.12,1.39c1.56,0.93,2.8,2.17,3.73,3.73
			C1036.11,477.48,1036.58,479.18,1036.58,481.03z M1018.02,578.8v-76.43h16.81v76.43H1018.02z"/>
		<path class="st1" d="M1085.24,580.99c-5.07,0-9.77-1.02-14.1-3.07c-4.34-2.05-8.11-4.87-11.33-8.48
			c-3.21-3.6-5.72-7.84-7.53-12.71c-1.8-4.87-2.7-10.13-2.7-15.78c0-5.75,0.93-11.11,2.78-16.08c1.85-4.97,4.43-9.3,7.75-13.01
			c3.31-3.7,7.18-6.58,11.62-8.62c4.43-2.05,9.23-3.07,14.39-3.07c5.06,0,9.69,1.07,13.88,3.21c4.19,2.14,7.65,5.16,10.38,9.06
			v-42.38h16.81V578.8h-15.35l-0.73-12.28c-2.73,4.48-6.33,8.01-10.81,10.59C1095.81,579.7,1090.79,580.99,1085.24,580.99z
			 M1088.75,565.79c4.19,0,7.94-1.1,11.25-3.29c3.31-2.19,5.92-5.19,7.82-8.99c1.9-3.8,2.85-8.09,2.85-12.86
			c0-4.87-0.95-9.21-2.85-13.01c-1.9-3.8-4.51-6.79-7.82-8.99c-3.31-2.19-7.06-3.29-11.25-3.29c-4.19,0-7.94,1.1-11.25,3.29
			c-3.31,2.19-5.92,5.19-7.82,8.99c-1.9,3.8-2.85,8.14-2.85,13.01c0,4.77,0.95,9.06,2.85,12.86c1.9,3.8,4.51,6.8,7.82,8.99
			C1080.81,564.7,1084.56,565.79,1088.75,565.79z"/>
		<path class="st1" d="M1180.81,580.99c-5.65,0-10.84-1-15.56-3c-4.73-2-8.84-4.8-12.35-8.4c-3.51-3.6-6.21-7.87-8.11-12.79
			c-1.9-4.92-2.85-10.35-2.85-16.29c0-5.75,0.95-11.06,2.85-15.93c1.9-4.87,4.53-9.13,7.89-12.79c3.36-3.65,7.33-6.5,11.91-8.55
			c4.58-2.05,9.55-3.07,14.91-3.07c5.36,0,10.25,0.95,14.69,2.85c4.43,1.9,8.28,4.6,11.54,8.11c3.26,3.51,5.77,7.67,7.53,12.49
			c1.75,4.82,2.63,10.16,2.63,16v4.97h-56.56c0.49,4.48,1.68,8.36,3.58,11.62c1.9,3.27,4.36,5.77,7.38,7.53
			c3.02,1.75,6.53,2.63,10.52,2.63c7.99,0,14.22-3.55,18.71-10.67l14.76,5.7c-1.75,4-4.31,7.48-7.67,10.45
			c-3.36,2.97-7.26,5.24-11.69,6.8C1190.48,580.21,1185.78,580.99,1180.81,580.99z M1179.5,513.77c-3.41,0-6.45,0.78-9.13,2.34
			c-2.68,1.56-4.95,3.75-6.79,6.58c-1.85,2.83-3.12,6.14-3.8,9.94h38.58c-0.58-3.8-1.7-7.11-3.36-9.94
			c-1.66-2.82-3.82-5.02-6.5-6.58C1185.8,514.55,1182.81,513.77,1179.5,513.77z"/>
		<path class="st1" d="M1255.05,578.8l41.36-103.76h19l41.5,103.76h-18.41l-9.79-25.72h-46.18l-9.79,25.72H1255.05z M1288.37,537.88
			h34.49l-17.24-44.86L1288.37,537.88z"/>
		<path class="st1" d="M1369.91,578.8V475.04h17.83V578.8H1369.91z"/>
	</g>
</g>
</svg>
